<?xml version="1.0" encoding="utf-8"?>
<!-- Generator: Adobe Illustrator 25.2.1, SVG Export Plug-In . SVG Version: 6.00 Build 0)  -->
<svg version="1.1" id="Calque_1" xmlns="http://www.w3.org/2000/svg" xmlns:xlink="http://www.w3.org/1999/xlink" x="0px" y="0px"
	 viewBox="0 0 60 60" style="enable-background:new 0 0 60 60;" xml:space="preserve">
<style type="text/css">
	.st0{fill:#FFFFFF;}
</style>
<path class="st0" d="M18,50H8V20h10V50z M13,16c-2.8,0-5-2.2-5-5s2.2-5,5-5c2.8,0,5,2.2,5,5C18,13.8,15.8,16,13,16z M54,50h-9.6
	V35.4c0-3.5-0.1-8-5-8c-5,0-5.8,3.8-5.8,7.7V50H24V20h9.2v4.1h0.1c1.3-2.4,4.4-4.8,9.1-4.8c9.7,0,11.5,6.2,11.5,14.3
	C54,33.5,54,50,54,50z"/>
</svg>
