<?xml version="1.0" encoding="utf-8"?>
<!-- Generator: Adobe Illustrator 25.2.1, SVG Export Plug-In . SVG Version: 6.00 Build 0)  -->
<svg version="1.1" id="Layer_1" xmlns="http://www.w3.org/2000/svg" xmlns:xlink="http://www.w3.org/1999/xlink" x="0px" y="0px"
	 viewBox="0 0 512 512" style="enable-background:new 0 0 512 512;" xml:space="preserve">
<style type="text/css">
	.st0{fill:#FFFFFF;}
</style>
<path class="st0" d="M421.1,86.5H90.9c-30.4,0-55,25.3-55,56.5v226c0,31.2,24.6,56.5,55,56.5h330.2c30.4,0,55-25.3,55-56.5V143
	C476.2,111.8,451.5,86.5,421.1,86.5z M330.5,237.3L447,134.8c0.8,2.6,1.6,5.3,1.6,8.2v226c0,2-0.7,3.7-1.1,5.5L330.5,237.3z
	 M421.1,114.7c1.8,0,3.4,0.7,5.2,1.1L256,265.7L85.7,115.8c1.7-0.4,3.3-1.1,5.2-1.1H421.1z M64.5,374.5c-0.4-1.8-1.1-3.6-1.1-5.5
	V143c0-2.9,0.8-5.6,1.6-8.2l116.5,102.5L64.5,374.5z M90.9,397.3c-2.8,0-5.3-0.8-7.8-1.6l119.3-140l44.7,39.3
	c2.6,2.3,5.8,3.4,8.9,3.4c3.2,0,6.4-1.1,8.9-3.4l44.7-39.3l119.3,140c-2.5,0.8-5.1,1.6-7.8,1.6H90.9z"/>
</svg>
