<?xml version="1.0" encoding="utf-8"?>
<!-- Generator: Adobe Illustrator 25.2.1, SVG Export Plug-In . SVG Version: 6.00 Build 0)  -->
<svg version="1.1" id="Calque_1" xmlns="http://www.w3.org/2000/svg" xmlns:xlink="http://www.w3.org/1999/xlink" x="0px" y="0px"
	 viewBox="0 0 64 64" style="enable-background:new 0 0 64 64;" xml:space="preserve">
<style type="text/css">
	.st0{fill-rule:evenodd;clip-rule:evenodd;fill:#808080;}
</style>
<path class="st0" d="M63.4,43.1c-0.6-0.6-1.4-0.7-2.2-0.4c-4.1,2-8.6,3.1-13.2,3.1c-8,0-15.5-3.1-21.1-8.7c-9-9-11.3-22.8-5.7-34.3
	c0.4-0.7,0.2-1.6-0.4-2.2c-0.6-0.6-1.4-0.7-2.2-0.4C15.5,1.8,12.5,4,9.9,6.6C3.5,12.9,0,21.4,0,30.4c0,9,3.5,17.4,9.9,23.8
	S24.7,64,33.6,64c9,0,17.4-3.5,23.8-9.9c2.6-2.6,4.8-5.6,6.4-8.9C64.2,44.5,64,43.6,63.4,43.1z"/>
</svg>
