<?xml version="1.0" encoding="utf-8"?>
<!-- Generator: Adobe Illustrator 25.2.1, SVG Export Plug-In . SVG Version: 6.00 Build 0)  -->
<svg version="1.1" id="Calque_1" xmlns="http://www.w3.org/2000/svg" xmlns:xlink="http://www.w3.org/1999/xlink" x="0px" y="0px"
	 viewBox="0 0 64 64" style="enable-background:new 0 0 64 64;" xml:space="preserve">
<style type="text/css">
	.st0{fill-rule:evenodd;clip-rule:evenodd;fill:#808080;}
</style>
<path class="st0" d="M11,32c0-1.5-1.2-2.7-2.7-2.7H2.7C1.2,29.3,0,30.5,0,32c0,1.5,1.2,2.7,2.7,2.7h5.5C9.7,34.7,11,33.5,11,32z
	 M13.7,47.5c-0.8,0-1.4,0.3-1.9,0.8L8.1,52c-0.5,0.5-0.8,1.2-0.8,1.9c0,1.5,1.2,2.7,2.7,2.7c0.8,0,1.4-0.3,1.9-0.8l3.7-3.7
	c0.5-0.5,0.8-1.2,0.8-1.9C16.5,48.8,15.2,47.5,13.7,47.5z M32,11c1.5,0,2.7-1.2,2.7-2.7V2.7C34.7,1.2,33.5,0,32,0
	c-1.5,0-2.7,1.2-2.7,2.7v5.5C29.3,9.7,30.5,11,32,11z M50.3,16.5c0.8,0,1.4-0.3,1.9-0.8l3.7-3.7c0.5-0.5,0.8-1.2,0.8-1.9
	c0-1.5-1.2-2.7-2.7-2.7c-0.8,0-1.4,0.3-1.9,0.8l-3.7,3.7c-0.5,0.5-0.8,1.2-0.8,1.9C47.5,15.2,48.8,16.5,50.3,16.5z M11.8,15.7
	c0.5,0.5,1.2,0.8,1.9,0.8c1.5,0,2.7-1.2,2.7-2.7c0-0.8-0.3-1.4-0.8-1.9L12,8.1c-0.5-0.5-1.2-0.8-1.9-0.8c-1.5,0-2.7,1.2-2.7,2.7
	c0,0.8,0.3,1.4,0.8,1.9L11.8,15.7z M61.3,29.3h-5.5c-1.5,0-2.7,1.2-2.7,2.7c0,1.5,1.2,2.7,2.7,2.7h5.5c1.5,0,2.7-1.2,2.7-2.7
	C64,30.5,62.8,29.3,61.3,29.3z M52.2,48.3c-0.5-0.5-1.2-0.8-1.9-0.8c-1.5,0-2.7,1.2-2.7,2.7c0,0.8,0.3,1.4,0.8,1.9l3.7,3.7
	c0.5,0.5,1.2,0.8,1.9,0.8c1.5,0,2.7-1.2,2.7-2.7c0-0.8-0.3-1.4-0.8-1.9L52.2,48.3z M32,53c-1.5,0-2.7,1.2-2.7,2.7v5.5
	c0,1.5,1.2,2.7,2.7,2.7c1.5,0,2.7-1.2,2.7-2.7v-5.5C34.7,54.3,33.5,53,32,53z M32,12.8c-10.6,0-19.2,8.6-19.2,19.2
	S21.4,51.2,32,51.2S51.2,42.6,51.2,32S42.6,12.8,32,12.8z M32,45.7c-7.6,0-13.7-6.2-13.7-13.7S24.4,18.3,32,18.3S45.7,24.4,45.7,32
	S39.6,45.7,32,45.7z"/>
</svg>
